<!-- icon666.com - MILLIONS OF FREE VECTOR ICONS --><svg id="Capa_1" enable-background="new 0 0 512 512" viewBox="0 0 512 512" xmlns="http://www.w3.org/2000/svg"><g><g><path d="m301.688 113.267h-91.377c-5.872 0-10.633-4.761-10.633-10.633v-84.503c0-5.872 4.761-10.633 10.633-10.633h91.377c5.872 0 10.633 4.761 10.633 10.633v84.502c0 5.873-4.76 10.634-10.633 10.634z" fill="#fdb441" style="fill: rgb(42, 55, 89);"></path></g><g><path d="m312.325 18.136v84.498c0 5.869-4.769 10.637-10.637 10.637h-17.285c5.869 0 10.627-4.769 10.627-10.637v-84.498c0-5.878-4.759-10.637-10.627-10.637h17.285c5.868-.001 10.637 4.758 10.637 10.637z" fill="#fea613" style="fill: rgb(119, 143, 210);"></path></g><g><path d="m238.713 7.498h34.574v105.768h-34.574z" fill="#ebebeb"></path></g><g><circle cx="256" cy="282.443" fill="#c86d36" r="222.058" style="fill: rgb(67, 29, 50);"></circle></g><g><path d="m478.06 282.442c0 122.645-99.424 222.06-222.06 222.06-54.598 0-104.601-19.701-143.274-52.399 36.662 26.742 81.833 42.519 130.692 42.519 122.646 0 222.06-99.414 222.06-222.06 0-68.067-30.627-128.986-78.855-169.71 55.416 40.378 91.437 105.774 91.437 179.59z" fill="#ac5e2e"></path></g><g><circle cx="256" cy="282.443" fill="#d8ecfe" r="191.211" style="fill: rgb(183, 203, 153);"></circle></g><g><path d="m447.216 282.442c0 105.606-85.609 191.216-191.216 191.216-44.185 0-84.86-14.978-117.232-40.152 29.128 17.966 63.453 28.319 100.183 28.319 105.607 0 191.206-85.609 191.206-191.216 0-61.421-28.96-116.079-73.974-151.054 54.628 33.654 91.033 94.011 91.033 162.887z" fill="#c4e2ff" style="fill: rgb(61, 82, 32);"></path></g><g><g><g><path d="m253.826 166.226c-7.131 3.468-29.063 17.123-23.819 52.077l8.015 35.351h17.978 17.979l8.015-35.351c5.243-34.954-16.688-48.61-23.819-52.077-1.372-.667-2.978-.667-4.349 0z" fill="#fdb441" style="fill: rgb(42, 55, 89);"></path></g><g><path d="m253.826 398.66c-7.131-3.467-29.063-17.123-23.819-52.077l8.015-35.351h17.978 17.979l8.015 35.351c5.243 34.954-16.688 48.61-23.819 52.077-1.372.667-2.978.667-4.349 0z" fill="#fdb441" style="fill: rgb(42, 55, 89);"></path></g></g><g><g><path d="m139.783 284.617c3.468 7.131 17.123 29.063 52.077 23.819l35.351-8.015v-17.979-17.979l-35.351-8.015c-34.954-5.243-48.61 16.688-52.077 23.819-.667 1.373-.667 2.979 0 4.35z" fill="#fdb441" style="fill: rgb(42, 55, 89);"></path></g><g><path d="m372.217 284.617c-3.467 7.131-17.123 29.063-52.077 23.819l-35.351-8.015v-17.979-17.979l35.351-8.015c34.954-5.243 48.61 16.688 52.077 23.819.667 1.373.667 2.979 0 4.35z" fill="#fdb441" style="fill: rgb(42, 55, 89);"></path></g></g><g><g><path d="m175.359 366.158c7.494 2.591 32.658 8.443 53.667-19.981l19.33-30.664-12.713-12.713-12.713-12.713-30.664 19.33c-28.424 21.009-22.572 46.173-19.981 53.667.498 1.441 1.633 2.576 3.074 3.074z" fill="#fece85" style="fill: rgb(119, 143, 210);"></path></g><g><path d="m339.715 201.803c2.591 7.494 8.443 32.658-19.981 53.667l-30.664 19.33-12.713-12.713-12.713-12.713 19.33-30.664c21.009-28.424 46.173-22.572 53.667-19.981 1.441.497 2.576 1.632 3.074 3.074z" fill="#fece85" style="fill: rgb(119, 143, 210);"></path></g></g><g><g><path d="m172.285 201.803c-2.591 7.494-8.443 32.658 19.981 53.667l30.664 19.33 12.713-12.713 12.713-12.713-19.33-30.664c-21.009-28.424-46.173-22.572-53.667-19.981-1.441.497-2.576 1.632-3.074 3.074z" fill="#fece85" style="fill: rgb(119, 143, 210);"></path></g><g><path d="m336.64 366.158c-7.494 2.591-32.658 8.443-53.667-19.981l-19.33-30.664 12.713-12.713 12.713-12.713 30.664 19.33c28.424 21.009 22.572 46.173 19.981 53.667-.497 1.441-1.632 2.576-3.074 3.074z" fill="#fece85" style="fill: rgb(119, 143, 210);"></path></g></g><g><g><path d="m248.358 249.369-10.008 10.018-18.696-29.641c-18.252-24.701-39.758-22.689-49.224-20.194.483-3.352 1.252-6.025 1.854-7.75.503-1.44 1.637-2.574 3.076-3.077 7.494-2.583 32.658-8.441 53.671 19.987z" fill="#fec165" style="fill: rgb(119, 143, 210);"></path></g><g><path d="m339.716 363.081c-.503 1.44-1.637 2.573-3.077 3.076-1.982.69-5.216 1.607-9.279 2.051 2.593-8.638 6.133-31.386-19.82-50.575l-28.231-17.788 9.762-9.762 30.656 19.336c28.43 21.004 22.582 46.168 19.989 53.662z" fill="#fec165" style="fill: rgb(119, 143, 210);"></path></g></g><g><g><path d="m289.173 274.439-10.018-10.008 29.641-18.696c24.701-18.252 22.689-39.758 20.194-49.224 3.352.483 6.025 1.252 7.75 1.854 1.44.503 2.574 1.637 3.077 3.076 2.583 7.494 8.441 32.658-19.987 53.671z" fill="#fec165" style="fill: rgb(119, 143, 210);"></path></g><g><path d="m175.461 365.797c-1.44-.503-2.573-1.637-3.076-3.077-.69-1.982-1.607-5.216-2.051-9.279 8.638 2.593 31.386 6.133 50.575-19.82l17.788-28.231 9.762 9.762-19.336 30.656c-21.004 28.43-46.168 22.582-53.662 19.989z" fill="#fec165" style="fill: rgb(119, 143, 210);"></path></g></g><g><path d="m256 324.107c-23.01 0-41.664-18.654-41.664-41.664 0-23.01 18.654-41.664 41.664-41.664 23.01 0 41.664 18.654 41.664 41.664 0 23.01-18.654 41.664-41.664 41.664z" fill="#c86d36" style="fill: rgb(67, 29, 50);"></path></g><g><path d="m297.661 282.442c0 11.507-4.664 21.92-12.198 29.463-7.543 7.534-17.956 12.198-29.463 12.198-13.312 0-25.164-6.242-32.796-15.954 4.861 1.982 10.176 3.076 15.747 3.076 11.507 0 21.92-4.664 29.454-12.197 7.543-7.543 12.207-17.956 12.207-29.463 0-9.693-3.313-18.626-8.875-25.707 5.177 2.11 9.831 5.236 13.726 9.131 7.534 7.533 12.198 17.955 12.198 29.453z" fill="#ac5e2e"></path></g><g><path d="m296.862 137.828c.68.191 1.365.283 2.039.283 3.272 0 6.281-2.16 7.213-5.465 1.124-3.985-1.196-8.128-5.182-9.251-9.756-2.751-19.843-4.607-29.982-5.516-4.107-.372-7.768 2.673-8.137 6.798-.37 4.124 2.673 7.768 6.798 8.138 9.216.826 18.384 2.513 27.251 5.013z" fill="#000000"></path><path d="m269.954 432.041c-9.149.843-18.585.85-27.734.017-4.127-.373-7.771 2.664-8.145 6.789-.375 4.124 2.664 7.771 6.788 8.146 4.995.453 10.088.683 15.139.683 5.112-.001 10.268-.237 15.325-.702 4.124-.38 7.159-4.029 6.78-8.153-.38-4.123-4.022-7.16-8.153-6.78z" fill="#000000"></path><path d="m212.577 138.26c.682 0 1.375-.094 2.064-.29 8.858-2.532 18.022-4.25 27.236-5.109 4.123-.385 7.154-4.039 6.77-8.162-.385-4.124-4.059-7.141-8.162-6.77-10.135.945-20.216 2.836-29.964 5.621-3.981 1.138-6.287 5.288-5.15 9.27.941 3.294 3.943 5.44 7.206 5.44z" fill="#000000"></path><path d="m418.321 120.122c-27.869-27.868-61.646-47.673-98.501-58.278v-10.223c0-4.141-3.356-7.498-7.498-7.498-4.141 0-7.498 3.357-7.498 7.498v6.453c-7.903-1.703-15.924-2.996-24.039-3.865v-39.213h20.904c1.603 0 2.974 1.245 3.121 2.833.384 4.124 4.038 7.165 8.159 6.773 4.123-.383 7.155-4.036 6.773-8.159-.87-9.374-8.632-16.443-18.053-16.443h-91.377c-9.997 0-18.131 8.134-18.131 18.131v43.713c-36.856 10.605-70.633 30.41-98.501 58.278-43.358 43.358-67.235 101.005-67.235 162.322s23.878 118.964 67.235 162.322c43.356 43.356 101.003 67.234 162.32 67.234s118.964-23.878 162.322-67.235c43.357-43.358 67.235-101.005 67.235-162.322s-23.879-118.964-67.236-162.321zm-172.11-105.126h19.578v38.116c-3.253-.137-6.514-.225-9.789-.225s-6.536.089-9.788.225v-38.116zm-39.034 3.135c0-1.729 1.406-3.135 3.135-3.135h20.904v39.213c-8.114.869-16.136 2.162-24.039 3.865zm200.539 416.029c-40.525 40.525-94.406 62.844-151.717 62.844s-111.191-22.318-151.717-62.844c-40.524-40.524-62.842-94.406-62.842-151.717s22.318-111.192 62.843-151.717 94.405-62.843 151.717-62.843 111.192 22.318 151.717 62.844c40.526 40.524 62.844 94.406 62.844 151.717s-22.319 111.192-62.845 151.716z" fill="#000000"></path><path d="m256 83.734c-109.569 0-198.709 89.141-198.709 198.709 0 39.357 11.486 77.402 33.216 110.025 2.296 3.446 6.95 4.38 10.398 2.083 3.446-2.296 4.379-6.951 2.083-10.398-20.085-30.151-30.701-65.323-30.701-101.711-.001-101.298 82.413-183.712 183.713-183.712s183.713 82.414 183.713 183.713-82.414 183.713-183.713 183.713c-50.18 0-97.048-19.855-131.97-55.906-2.879-2.975-7.627-3.051-10.602-.169-2.975 2.881-3.05 7.628-.169 10.602 37.771 38.995 88.465 60.469 142.741 60.469 109.569 0 198.709-89.141 198.709-198.709s-89.141-198.709-198.709-198.709z" fill="#000000"></path><path d="m367.054 383.628c-6.227 6.831-13.118 13.12-20.481 18.692-3.303 2.498-3.954 7.201-1.455 10.503 1.474 1.949 3.716 2.974 5.985 2.974 1.576 0 3.165-.495 4.518-1.519 8.096-6.125 15.671-13.039 22.516-20.547 2.789-3.061 2.57-7.803-.49-10.593-3.061-2.789-7.802-2.57-10.593.49z" fill="#000000"></path><path d="m323.025 416.939c-8.264 4.128-16.956 7.501-25.831 10.026-3.983 1.134-6.293 5.281-5.161 9.263.938 3.298 3.942 5.449 7.208 5.449.68 0 1.37-.093 2.055-.288 9.77-2.78 19.335-6.491 28.429-11.033 3.704-1.85 5.208-6.354 3.358-10.058-1.85-3.707-6.356-5.209-10.058-3.359z" fill="#000000"></path><path d="m377.889 170.885c-2.798-3.054-7.541-3.262-10.594-.466-3.054 2.797-3.262 7.54-.466 10.594 6.245 6.819 11.886 14.247 16.767 22.079 1.422 2.281 3.868 3.533 6.37 3.533 1.354 0 2.725-.367 3.959-1.135 3.515-2.191 4.588-6.816 2.398-10.329-5.367-8.612-11.569-16.779-18.434-24.276z" fill="#000000"></path><path d="m346.306 162.365c1.351 1.018 2.935 1.509 4.506 1.509 2.274 0 4.521-1.03 5.994-2.987 2.492-3.308 1.831-8.009-1.477-10.5-8.124-6.119-16.85-11.511-25.938-16.024-3.708-1.841-8.208-.327-10.051 3.381-1.841 3.709-.328 8.209 3.381 10.051 8.263 4.103 16.198 9.007 23.585 14.57z" fill="#000000"></path><path d="m418.451 312.789c1.845-9.944 2.781-20.153 2.781-30.407l-.001-.298c0-4.141-3.357-7.498-7.498-7.498s-7.498 3.357-7.498 7.498l.001.359c0 9.277-.851 18.565-2.53 27.608-.756 4.072 1.932 7.985 6.003 8.741.463.086.924.127 1.378.127 3.544 0 6.694-2.522 7.364-6.13z" fill="#000000"></path><path d="m409.986 222.411c-1.505-3.856-5.852-5.762-9.711-4.26-3.857 1.505-5.764 5.853-4.26 9.711 3.355 8.597 5.921 17.559 7.627 26.634.677 3.602 3.825 6.114 7.36 6.114.46 0 .927-.042 1.394-.13 4.069-.765 6.748-4.684 5.984-8.755-1.878-9.987-4.701-19.85-8.394-29.314z" fill="#000000"></path><path d="m405.842 332.421c-3.86-1.499-8.205.421-9.701 4.282-3.333 8.602-7.494 16.948-12.368 24.805-2.182 3.52-1.098 8.141 2.42 10.324 1.231.763 2.596 1.127 3.945 1.127 2.508 0 4.96-1.258 6.379-3.547 5.361-8.644 9.939-17.825 13.606-27.291 1.498-3.86-.42-8.204-4.281-9.7z" fill="#000000"></path><path d="m111.5 218.647c-3.864-1.492-8.204.432-9.695 4.296-3.658 9.478-6.448 19.35-8.292 29.341-.751 4.073 1.941 7.983 6.013 8.734.461.085.918.126 1.37.126 3.546 0 6.698-2.527 7.365-6.138 1.674-9.08 4.21-18.051 7.534-26.664 1.491-3.864-.432-8.205-4.295-9.695z" fill="#000000"></path><path d="m115.577 369.567c1.421 2.285 3.869 3.54 6.374 3.54 1.351 0 2.72-.365 3.952-1.132 3.517-2.186 4.595-6.81 2.409-10.326-4.882-7.851-9.05-16.19-12.391-24.784-1.5-3.858-5.841-5.774-9.705-4.271-3.859 1.501-5.772 5.845-4.271 9.706 3.674 9.455 8.261 18.629 13.632 27.267z" fill="#000000"></path><path d="m133.736 171.296c-6.841 7.521-13.016 15.709-18.354 24.339-2.179 3.522-1.089 8.142 2.432 10.321 1.229.76 2.591 1.123 3.938 1.123 2.511 0 4.965-1.261 6.383-3.555 4.855-7.849 10.472-15.297 16.694-22.137 2.786-3.064 2.562-7.806-.501-10.592-3.064-2.787-7.806-2.562-10.592.501z" fill="#000000"></path><path d="m90.767 282.633c.012 10.197.96 20.406 2.818 30.344.674 3.605 3.822 6.121 7.361 6.121.457 0 .921-.042 1.386-.129 4.07-.761 6.754-4.677 5.992-8.748-1.689-9.038-2.551-18.325-2.562-27.606-.005-4.139-3.36-7.489-7.498-7.489-.003 0-.006 0-.009 0-4.141.005-7.493 3.366-7.488 7.507z" fill="#000000"></path><path d="m189.125 417.013c-3.708-1.843-8.21-.337-10.055 3.369-1.845 3.707-.337 8.209 3.369 10.055 9.102 4.532 18.673 8.234 28.447 11.002.683.194 1.371.286 2.047.286 3.27 0 6.276-2.156 7.21-5.457 1.129-3.984-1.186-8.13-5.171-9.257-8.881-2.514-17.577-5.879-25.847-9.998z" fill="#000000"></path><path d="m165.557 402.418c-7.369-5.565-14.267-11.846-20.502-18.671-2.793-3.059-7.535-3.272-10.593-.478s-3.272 7.536-.478 10.593c6.854 7.501 14.437 14.406 22.537 20.524 1.352 1.021 2.939 1.514 4.513 1.514 2.271 0 4.515-1.027 5.99-2.98 2.493-3.304 1.837-8.006-1.467-10.502z" fill="#000000"></path><path d="m160.764 164.196c1.579 0 3.171-.496 4.526-1.524 7.368-5.59 15.285-10.518 23.531-14.647 3.702-1.854 5.201-6.359 3.347-10.062-1.853-3.702-6.357-5.204-10.062-3.347-9.069 4.541-17.777 9.96-25.88 16.107-3.299 2.503-3.944 7.206-1.442 10.506 1.475 1.945 3.714 2.967 5.98 2.967z" fill="#000000"></path><path d="m133.04 276.991c-1.684 3.465-1.684 7.44 0 10.906 3.244 6.669 14.678 25.464 41.117 28.439-16.604 20.802-11.382 42.187-8.958 49.195 1.256 3.641 4.066 6.452 7.712 7.715 3.137 1.084 9.149 2.728 16.7 2.728 9.332 0 21.014-2.518 32.515-11.704 2.969 26.444 21.753 37.891 28.422 41.133 1.733.843 3.593 1.263 5.453 1.263s3.72-.421 5.453-1.263c6.669-3.242 25.456-14.686 28.428-41.129 11.5 9.183 23.179 11.699 32.51 11.699 7.55 0 13.564-1.644 16.7-2.728.001-.001.002-.001.004-.002 3.642-1.26 6.451-4.072 7.707-7.71 2.424-7.01 7.646-28.395-8.958-49.198 26.435-2.975 37.874-21.77 41.117-28.439 0-.001 0-.001 0-.001 1.684-3.465 1.684-7.44 0-10.906-3.243-6.669-14.691-25.449-41.129-28.424 16.618-20.807 11.394-42.201 8.969-49.213-1.258-3.643-4.069-6.453-7.71-7.711-7.01-2.423-28.393-7.645-49.195 8.955-2.975-26.439-21.774-37.872-28.444-41.114-3.466-1.685-7.439-1.685-10.906 0-6.668 3.243-25.467 14.677-28.441 41.115-20.801-16.601-42.184-11.379-49.194-8.957-3.643 1.258-6.453 4.069-7.712 7.712-2.425 7.011-7.648 28.403 8.966 49.208-26.443 2.97-37.883 21.761-41.126 28.431zm89.795 64.946c-16.65 22.351-35.423 20.092-43.847 17.518-2.573-8.421-4.837-27.195 17.517-43.848l16.078-10.134c4.61 8.656 11.731 15.776 20.387 20.387zm-1.001-59.494c0-18.839 15.327-34.166 34.166-34.166s34.166 15.327 34.166 34.166-15.327 34.166-34.166 34.166-34.166-15.327-34.166-34.166zm34.166 108.911c-7.774-4.134-22.648-15.809-18.618-43.391l.347-1.531 9.815-15.569c2.75.479 5.572.743 8.456.743 2.885 0 5.707-.264 8.457-.743l9.816 15.572.347 1.529c4.029 27.582-10.846 39.256-18.62 43.39zm77.011-31.899c-8.424 2.572-27.198 4.832-43.848-17.518l-10.133-16.077c8.656-4.61 15.776-11.731 20.387-20.387l16.078 10.134c22.351 16.652 20.091 35.425 17.516 43.848zm31.9-77.012c-4.136 7.774-15.812 22.648-43.391 18.618l-1.532-.347-15.57-9.815c.479-2.749.743-5.572.743-8.456s-.264-5.707-.743-8.456l15.573-9.816 1.529-.347c27.58-4.026 39.256 10.845 43.391 18.619zm-75.747-59.495c16.654-22.352 35.425-20.092 43.848-17.517 2.573 8.421 4.836 27.195-17.517 43.848l-16.078 10.135c-4.61-8.656-11.731-15.777-20.387-20.387zm-33.165-49.416c2.957-1.573 12.528 10.936 13.655 12.768 2.453 3.991 4.054 8.448 4.898 13.048 1.038 5.661.995 13.487-.279 19.103l-9.816 15.573c-2.75-.479-5.572-.743-8.457-.743-2.884 0-5.707.264-8.456.743-4.636-7.355-9.815-15.571-9.815-15.572-3.895-17.172 2.23-36.387 18.27-44.92zm-77.01 31.899c8.42-2.575 27.193-4.837 43.847 17.517l10.134 16.078c-8.656 4.61-15.777 11.731-20.387 20.387l-16.077-10.134c-22.353-16.653-20.091-35.427-17.517-43.848zm-18.933 63.24c3.904-2.365 8.247-3.92 12.727-4.755 5.367-1 14.806-1.842 19.658.527 2.998 1.463 5.816 3.666 8.634 5.443 2.168 1.367 4.337 2.734 6.505 4.101-.479 2.75-.743 5.572-.743 8.457s.264 5.707.743 8.457c-.375.236-.749.472-1.124.708-5.616 3.54-10.198 7.892-16.884 9.431-6.846 1.576-14.86.855-21.53-1.239-8.974-2.818-16.536-9.051-20.954-17.357-1.6-3.011 11.107-12.646 12.968-13.773z" fill="#000000"></path></g></g></g></svg>