<!-- icon666.com - MILLIONS OF FREE VECTOR ICONS --><svg id="Layer_1" viewBox="0 0 512 512" xmlns="http://www.w3.org/2000/svg" data-name="Layer 1"><path d="m505.271 472.716a23.017 23.017 0 0 1 -32.55 32.551l-211.3-211.3a7.663 7.663 0 0 0 -10.838 0l-211.3 211.3a23.016 23.016 0 0 1 -32.55-32.549l211.3-211.3a7.663 7.663 0 0 0 0-10.839l-211.299-211.299a23.017 23.017 0 0 1 32.551-32.55l211.3 211.3a7.66 7.66 0 0 0 10.838 0l211.3-211.3a23.016 23.016 0 0 1 32.55 32.549l-211.3 211.3a7.663 7.663 0 0 0 0 10.839z" fill="#000000" style="fill: rgb(67, 29, 50);"></path></svg>