<!-- icon666.com - MILLIONS OF FREE VECTOR ICONS --><svg id="Layer_1" enable-background="new 0 0 512 512" viewBox="0 0 512 512" xmlns="http://www.w3.org/2000/svg"><g><path d="m496.5 504.5h-481c-4.418 0-8-3.582-8-8v-481c0-4.418 3.582-8 8-8h481c4.418 0 8 3.582 8 8v481c0 4.418-3.582 8-8 8z" fill="#b2caec" style="fill: rgb(119, 143, 210);"></path><path d="m496.5 7.5h-30c4.418 0 8 3.582 8 8v481c0 4.418-3.582 8-8 8h30c4.418 0 8-3.582 8-8v-481c0-4.418-3.582-8-8-8z" fill="#98bce5" style="fill: rgb(98, 117, 172);"></path><path d="m199.6 128c22.617 0 41.284 7.93 55.252 17.737.693.487 1.603.487 2.297 0 13.967-9.807 32.634-17.737 55.251-17.737 47.436 0 84.6 41.653 84.6 94.819 0 34.056-16.634 99.847-128.043 157.986-4.062 2.139-8.509 3.195-12.957 3.195s-8.895-1.056-12.957-3.194c-111.409-58.139-128.043-123.931-128.043-157.987 0-53.166 37.164-94.819 84.6-94.819z" fill="#f79595" style="fill: rgb(67, 29, 50);"></path><g><path d="m312.4 128c-5.454 0-10.672.47-15.656 1.308 40.373 7.43 70.256 45.839 70.256 93.512 0 33.845-16.445 99.032-126 156.904.683.361 1.353.722 2.043 1.083 4.062 2.139 8.51 3.194 12.957 3.194s8.895-1.056 12.957-3.194c111.409-58.14 128.043-123.932 128.043-157.988 0-53.166-37.164-94.819-84.6-94.819z" fill="#f37c7c" style="fill: rgb(47, 9, 29);"></path></g><g><path d="m496.5 0h-481c-8.547 0-15.5 6.953-15.5 15.5v22c.307 9.916 14.696 9.909 15 0v-22c0-.276.224-.5.5-.5h481c.276 0 .5.224.5.5v481c0 .276-.224.5-.5.5h-481c-.276 0-.5-.224-.5-.5v-422.677c-.307-9.916-14.696-9.909-15 0v422.677c0 8.547 6.953 15.5 15.5 15.5h481c8.547 0 15.5-6.953 15.5-15.5v-481c0-8.547-6.953-15.5-15.5-15.5z" fill="#000000" style="fill: rgb(255, 255, 255);"></path><path d="m30 474.5c0 4.142 3.358 7.5 7.5 7.5h5c8.61-.088 10.288-12.167 2.179-14.679-2.515-8.114-14.593-6.425-14.679 2.179z" fill="#000000" style="fill: rgb(255, 255, 255);"></path><path d="m30 201.384c.307 9.916 14.696 9.909 15 0v-9.93c-.307-9.916-14.696-9.909-15 0z" fill="#000000" style="fill: rgb(255, 255, 255);"></path><path d="m30 82.221c.307 9.916 14.696 9.909 15 0v-9.93c-.307-9.916-14.696-9.909-15 0z" fill="#000000" style="fill: rgb(255, 255, 255);"></path><path d="m30 280.826c.307 9.916 14.696 9.909 15 0v-9.93c-.307-9.916-14.696-9.909-15 0z" fill="#000000" style="fill: rgb(255, 255, 255);"></path><path d="m30 121.942c.307 9.916 14.696 9.909 15 0v-9.93c-.307-9.916-14.696-9.909-15 0z" fill="#000000" style="fill: rgb(255, 255, 255);"></path><path d="m30 241.105c.307 9.916 14.696 9.909 15 0v-9.93c-.307-9.916-14.696-9.909-15 0z" fill="#000000" style="fill: rgb(255, 255, 255);"></path><path d="m30 399.989c.307 9.916 14.696 9.909 15 0v-9.931c-.307-9.916-14.696-9.909-15 0z" fill="#000000" style="fill: rgb(255, 255, 255);"></path><path d="m30 439.709c.307 9.916 14.696 9.909 15 0v-9.93c-.307-9.916-14.696-9.909-15 0z" fill="#000000" style="fill: rgb(255, 255, 255);"></path><path d="m30 320.547c.307 9.916 14.696 9.909 15 0v-9.931c-.307-9.916-14.696-9.909-15 0z" fill="#000000" style="fill: rgb(255, 255, 255);"></path><path d="m30 360.268c.307 9.916 14.696 9.909 15 0v-9.93c-.307-9.916-14.696-9.909-15 0z" fill="#000000" style="fill: rgb(255, 255, 255);"></path><path d="m30 161.663c.307 9.916 14.696 9.909 15 0v-9.93c-.307-9.916-14.696-9.909-15 0z" fill="#000000" style="fill: rgb(255, 255, 255);"></path><path d="m37.5 50c3.384 0 6.245-2.242 7.179-5.321 8.113-2.515 6.425-14.593-2.179-14.679h-5c-4.142 0-7.5 3.358-7.5 7.5v5c0 4.142 3.358 7.5 7.5 7.5z" fill="#000000" style="fill: rgb(255, 255, 255);"></path><path d="m241.104 30h-9.93c-9.916.307-9.909 14.696 0 15h9.93c9.917-.307 9.91-14.696 0-15z" fill="#000000" style="fill: rgb(255, 255, 255);"></path><path d="m280.825 30h-9.93c-9.916.307-9.909 14.696 0 15h9.93c9.916-.307 9.909-14.696 0-15z" fill="#000000" style="fill: rgb(255, 255, 255);"></path><path d="m320.546 30h-9.93c-9.916.307-9.909 14.696 0 15h9.93c9.917-.307 9.909-14.696 0-15z" fill="#000000" style="fill: rgb(255, 255, 255);"></path><path d="m201.384 30h-9.931c-9.916.307-9.909 14.696 0 15h9.931c9.916-.307 9.909-14.696 0-15z" fill="#000000" style="fill: rgb(255, 255, 255);"></path><path d="m360.267 30h-9.93c-9.916.307-9.909 14.696 0 15h9.93c9.916-.307 9.909-14.696 0-15z" fill="#000000" style="fill: rgb(255, 255, 255);"></path><path d="m439.709 30h-9.93c-9.916.307-9.909 14.696 0 15h9.93c9.916-.307 9.909-14.696 0-15z" fill="#000000" style="fill: rgb(255, 255, 255);"></path><path d="m121.942 30h-9.931c-9.916.307-9.909 14.696 0 15h9.931c9.916-.307 9.909-14.696 0-15z" fill="#000000" style="fill: rgb(255, 255, 255);"></path><path d="m82.221 30h-9.93c-9.916.307-9.909 14.696 0 15h9.93c9.916-.307 9.909-14.696 0-15z" fill="#000000" style="fill: rgb(255, 255, 255);"></path><path d="m399.988 30h-9.93c-9.916.307-9.909 14.696 0 15h9.93c9.917-.307 9.909-14.696 0-15z" fill="#000000" style="fill: rgb(255, 255, 255);"></path><path d="m161.663 30h-9.93c-9.916.307-9.909 14.696 0 15h9.93c9.916-.307 9.909-14.696 0-15z" fill="#000000" style="fill: rgb(255, 255, 255);"></path><path d="m482 37.5c0-4.142-3.358-7.5-7.5-7.5h-5c-8.61.088-10.288 12.167-2.179 14.679 2.515 8.114 14.592 6.425 14.679-2.179z" fill="#000000" style="fill: rgb(255, 255, 255);"></path><path d="m482 151.732c-.307-9.916-14.696-9.909-15 0v9.93c.307 9.916 14.696 9.909 15 0z" fill="#000000" style="fill: rgb(255, 255, 255);"></path><path d="m482 72.291c-.307-9.916-14.696-9.909-15 0v9.93c.307 9.916 14.696 9.909 15 0z" fill="#000000" style="fill: rgb(255, 255, 255);"></path><path d="m482 191.453c-.307-9.916-14.696-9.909-15 0v9.931c.307 9.916 14.696 9.909 15 0z" fill="#000000" style="fill: rgb(255, 255, 255);"></path><path d="m482 112.011c-.307-9.916-14.696-9.909-15 0v9.931c.307 9.916 14.696 9.909 15 0z" fill="#000000" style="fill: rgb(255, 255, 255);"></path><path d="m482 390.058c-.307-9.916-14.696-9.909-15 0v9.93c.307 9.916 14.696 9.909 15 0z" fill="#000000" style="fill: rgb(255, 255, 255);"></path><path d="m474.5 422.279c-4.142 0-7.5 3.358-7.5 7.5v9.93c.307 9.916 14.696 9.909 15 0v-9.93c0-4.142-3.358-7.5-7.5-7.5z" fill="#000000" style="fill: rgb(255, 255, 255);"></path><path d="m482 350.337c-.307-9.916-14.696-9.909-15 0v9.93c.307 9.916 14.696 9.909 15 0z" fill="#000000" style="fill: rgb(255, 255, 255);"></path><path d="m482 231.174c-.307-9.916-14.696-9.909-15 0v9.93c.307 9.916 14.696 9.909 15 0z" fill="#000000" style="fill: rgb(255, 255, 255);"></path><path d="m482 310.616c-.307-9.916-14.696-9.909-15 0v9.93c.307 9.916 14.696 9.909 15 0z" fill="#000000" style="fill: rgb(255, 255, 255);"></path><path d="m482 270.895c-.307-9.916-14.696-9.909-15 0v9.93c.307 9.916 14.696 9.909 15 0z" fill="#000000" style="fill: rgb(255, 255, 255);"></path><path d="m469.5 482h5c4.142 0 7.5-3.358 7.5-7.5v-5c-.088-8.61-12.167-10.288-14.679-2.179-8.113 2.515-6.425 14.593 2.179 14.679z" fill="#000000" style="fill: rgb(255, 255, 255);"></path><path d="m191.454 482h9.93c9.916-.307 9.909-14.696 0-15h-9.93c-9.917.307-9.909 14.696 0 15z" fill="#000000" style="fill: rgb(255, 255, 255);"></path><path d="m231.175 482h9.93c9.916-.307 9.909-14.696 0-15h-9.93c-9.916.307-9.909 14.696 0 15z" fill="#000000" style="fill: rgb(255, 255, 255);"></path><path d="m350.337 467c-9.916.307-9.909 14.696 0 15h9.93c9.916-.307 9.909-14.696 0-15z" fill="#000000" style="fill: rgb(255, 255, 255);"></path><path d="m429.779 482h9.93c9.916-.307 9.909-14.696 0-15h-9.93c-9.916.307-9.909 14.696 0 15z" fill="#000000" style="fill: rgb(255, 255, 255);"></path><path d="m270.896 482h9.93c9.916-.307 9.909-14.696 0-15h-9.93c-9.917.307-9.91 14.696 0 15z" fill="#000000" style="fill: rgb(255, 255, 255);"></path><path d="m390.058 482h9.931c9.916-.307 9.909-14.696 0-15h-9.931c-9.916.307-9.909 14.696 0 15z" fill="#000000" style="fill: rgb(255, 255, 255);"></path><path d="m112.012 482h9.93c9.916-.307 9.909-14.696 0-15h-9.93c-9.917.307-9.909 14.696 0 15z" fill="#000000" style="fill: rgb(255, 255, 255);"></path><path d="m64.791 474.5c0 4.142 3.358 7.5 7.5 7.5h9.93c9.916-.307 9.909-14.696 0-15h-9.93c-4.142 0-7.5 3.358-7.5 7.5z" fill="#000000" style="fill: rgb(255, 255, 255);"></path><path d="m151.733 482h9.93c9.916-.307 9.909-14.696 0-15h-9.93c-9.916.307-9.909 14.696 0 15z" fill="#000000" style="fill: rgb(255, 255, 255);"></path><path d="m310.616 482h9.931c9.916-.307 9.909-14.696 0-15h-9.931c-9.916.307-9.909 14.696 0 15z" fill="#000000" style="fill: rgb(255, 255, 255);"></path><path d="m257.383 102.535c-.461.211-.922.426-1.383.643-.46-.217-.921-.432-1.382-.643-3.765-1.724-8.217-.071-9.942 3.696-1.725 3.766-.07 8.217 3.696 9.942 3.45 1.6 7.208 4.182 11.014 2.043 1.393-.705 2.82-1.392 4.241-2.042 3.766-1.724 5.422-6.175 3.698-9.941-1.725-3.767-6.176-5.422-9.942-3.698z" fill="#000000" style="fill: rgb(255, 255, 255);"></path><path d="m134.152 326.161c-2.101-2.473-4.153-5-6.1-7.513-2.539-3.274-7.248-3.873-10.522-1.336s-3.873 7.248-1.336 10.522c2.084 2.69 4.28 5.395 6.527 8.04 6.666 7.361 17.612-1.975 11.431-9.713z" fill="#000000" style="fill: rgb(255, 255, 255);"></path><path d="m92.29 268.472c3.994-1.097 6.343-5.224 5.247-9.218-.843-3.068-1.59-6.186-2.222-9.266-.832-4.058-4.799-6.669-8.854-5.84-4.058.832-6.672 4.796-5.84 8.854.697 3.4 1.522 6.84 2.451 10.224 1.083 4.027 5.331 6.346 9.218 5.246z" fill="#000000" style="fill: rgb(255, 255, 255);"></path><path d="m379.354 111.575c-2.917-2.04-5.956-3.967-9.031-5.728-3.594-2.057-8.176-.812-10.235 2.782-2.058 3.595-.812 8.177 2.782 10.235 2.686 1.537 5.339 3.22 7.887 5.002 8.274 5.43 16.557-6.344 8.597-12.291z" fill="#000000" style="fill: rgb(255, 255, 255);"></path><path d="m330.088 91.823c-9.852-1.189-11.996 13.051-2.245 14.831 3.067.464 6.143 1.076 9.142 1.819 3.914 1.002 8.103-1.426 9.083-5.478.996-4.021-1.457-8.087-5.478-9.083-3.445-.852-6.979-1.556-10.502-2.089z" fill="#000000" style="fill: rgb(255, 255, 255);"></path><path d="m98.98 301.854c2.023 3.656 6.646 4.906 10.199 2.913 3.62-2.012 4.924-6.579 2.912-10.199-1.56-2.806-3.049-5.67-4.426-8.515-1.807-3.728-6.292-5.286-10.02-3.48s-5.286 6.292-3.48 10.02c1.501 3.095 3.12 6.211 4.815 9.261z" fill="#000000" style="fill: rgb(255, 255, 255);"></path><path d="m298.181 91.269c-3.51.381-7.046.911-10.51 1.574-4.068.778-6.735 4.708-5.957 8.776.76 4.094 4.807 6.748 8.776 5.957 3.068-.587 6.201-1.056 9.311-1.394 9.821-1.375 8.27-15.682-1.62-14.913z" fill="#000000" style="fill: rgb(255, 255, 255);"></path><path d="m104.167 152.371c3.349 2.367 8.051 1.594 10.45-1.817 1.802-2.561 3.727-5.068 5.721-7.453 2.657-3.178 2.235-7.908-.942-10.564-3.178-2.658-7.908-2.236-10.564.942-2.26 2.702-4.44 5.542-6.48 8.442-2.385 3.388-1.572 8.066 1.815 10.45z" fill="#000000" style="fill: rgb(255, 255, 255);"></path><path d="m97.045 165.687c-3.855-1.513-8.208.384-9.722 4.24-1.281 3.262-2.456 6.627-3.491 10.001-1.215 3.96 1.01 8.155 4.97 9.37 3.852 1.215 8.166-.974 9.37-4.97.924-3.01 1.971-6.011 3.113-8.919 1.514-3.856-.384-8.209-4.24-9.722z" fill="#000000" style="fill: rgb(255, 255, 255);"></path><path d="m132.294 111.821c-3.386 2.385-4.197 7.064-1.811 10.451 2.4 3.41 7.103 4.18 10.451 1.811 2.544-1.792 5.191-3.485 7.87-5.031 3.587-2.071 4.816-6.658 2.745-10.245-2.071-3.588-6.659-4.817-10.245-2.745-3.067 1.77-6.098 3.708-9.01 5.759z" fill="#000000" style="fill: rgb(255, 255, 255);"></path><path d="m255.998 421.5h.018c1.949 0 3.926-.09 5.876-.268 4.125-.376 7.165-4.024 6.789-8.149s-4.03-7.167-8.149-6.789c-1.5.137-3.02.206-4.519.206-1.437-.004-2.797-.058-4.188-.175-4.124-.334-7.753 2.722-8.099 6.85-.345 4.128 2.722 7.753 6.85 8.099 1.8.15 3.625.226 5.422.226z" fill="#000000" style="fill: rgb(255, 255, 255);"></path><path d="m85.006 229.12c4.113 0 7.464-3.317 7.499-7.438.026-3.166.163-6.357.408-9.487.323-4.129-2.763-7.739-6.893-8.062-4.127-.325-7.739 2.762-8.062 6.893-.272 3.476-.424 7.019-.453 10.532-.035 4.142 3.296 7.528 7.438 7.562z" fill="#000000" style="fill: rgb(255, 255, 255);"></path><path d="m205.149 97.896c-.434 4.119 2.553 7.811 6.673 8.244 3.11.328 6.245.787 9.315 1.364 3.972.778 8.01-1.89 8.757-5.985.765-4.071-1.915-7.991-5.985-8.757-3.467-.651-7.005-1.169-10.516-1.539-4.109-.435-7.81 2.554-8.244 6.673z" fill="#000000" style="fill: rgb(255, 255, 255);"></path><path d="m181.483 91.89c-3.519.546-7.049 1.262-10.494 2.128-4.017 1.01-6.455 5.085-5.444 9.103.995 4.049 5.192 6.461 9.103 5.444 2.998-.754 6.071-1.377 9.135-1.853 4.093-.635 6.896-4.468 6.261-8.561-.634-4.093-4.465-6.898-8.561-6.261z" fill="#000000" style="fill: rgb(255, 255, 255);"></path><path d="m389.557 335.544c2.241-2.646 4.433-5.355 6.513-8.052 2.53-3.279 1.923-7.989-1.356-10.52-3.278-2.53-7.989-1.923-10.52 1.356-1.942 2.517-3.99 5.048-6.084 7.523-2.677 3.161-2.284 7.894.877 10.57 3.145 2.668 7.883 2.296 10.57-.877z" fill="#000000" style="fill: rgb(255, 255, 255);"></path><path d="m402.883 133.139c-2.668-3.168-7.4-3.574-10.568-.905-3.168 2.668-3.573 7.399-.905 10.568 2 2.375 3.934 4.876 5.747 7.433 2.41 3.402 7.115 4.159 10.456 1.78 3.379-2.396 4.176-7.077 1.78-10.456-2.052-2.895-4.243-5.728-6.51-8.42z" fill="#000000" style="fill: rgb(255, 255, 255);"></path><path d="m368.541 347.273c-2.817-3.036-7.562-3.214-10.599-.397-2.348 2.178-4.792 4.366-7.266 6.502-3.135 2.708-3.481 7.444-.773 10.579 2.717 3.145 7.458 3.471 10.579.773 2.607-2.252 5.186-4.56 7.663-6.858 3.035-2.816 3.213-7.562.396-10.599z" fill="#000000" style="fill: rgb(255, 255, 255);"></path><path d="m338.031 373.224c-2.403-3.374-7.087-4.16-10.46-1.758-2.623 1.868-5.338 3.745-8.069 5.579-3.439 2.309-4.355 6.968-2.047 10.407 2.323 3.465 7.013 4.338 10.407 2.047 2.846-1.911 5.676-3.867 8.411-5.815 3.374-2.403 4.161-7.086 1.758-10.46z" fill="#000000" style="fill: rgb(255, 255, 255);"></path><path d="m219.443 410.732c3.573 1.951 8.185.645 10.163-3.034 1.969-3.645.61-8.195-3.034-10.163-2.904-1.569-5.805-3.176-8.621-4.778-3.602-2.047-8.179-.789-10.227 2.813-2.047 3.601-.788 8.18 2.813 10.227 2.91 1.654 5.907 3.315 8.906 4.935z" fill="#000000" style="fill: rgb(255, 255, 255);"></path><path d="m292.929 410.531c2.999-1.624 5.994-3.287 8.903-4.944 3.599-2.051 4.854-6.631 2.804-10.229-2.052-3.599-6.631-4.854-10.229-2.804-2.815 1.604-5.715 3.214-8.618 4.786-3.643 1.972-4.997 6.523-3.025 10.166 1.981 3.677 6.593 4.978 10.165 3.025z" fill="#000000" style="fill: rgb(255, 255, 255);"></path><path d="m194.896 387.679c2.305-3.441 1.384-8.1-2.058-10.405-2.736-1.833-5.454-3.707-8.077-5.571-3.377-2.398-8.059-1.606-10.458 1.77-2.399 3.377-1.607 8.059 1.77 10.458 2.735 1.943 5.567 3.896 8.417 5.806 3.398 2.287 8.087 1.41 10.406-2.058z" fill="#000000" style="fill: rgb(255, 255, 255);"></path><path d="m413.23 301.474c1.69-3.057 3.302-6.177 4.793-9.274 1.796-3.732.228-8.214-3.504-10.011s-8.214-.229-10.011 3.504c-1.369 2.845-2.852 5.712-4.406 8.524-2.004 3.625-.689 8.188 2.936 10.192 3.556 1.986 8.177.725 10.192-2.935z" fill="#000000" style="fill: rgb(255, 255, 255);"></path><path d="m421.811 268.339c3.302 0 6.327-2.197 7.233-5.536.92-3.387 1.735-6.829 2.423-10.23.821-4.06-1.804-8.017-5.864-8.838-4.06-.823-8.017 1.804-8.838 5.864-.624 3.082-1.363 6.202-2.197 9.273-1.085 3.998 1.275 8.118 5.272 9.204.659.178 1.32.263 1.971.263z" fill="#000000" style="fill: rgb(255, 255, 255);"></path><path d="m426.989 228.702h.085c4.142-.046 7.462-3.441 7.416-7.583-.039-3.513-.202-7.057-.484-10.532-.335-4.128-3.951-7.194-8.083-6.869-4.128.335-7.204 3.954-6.869 8.083.254 3.128.401 6.32.436 9.485.048 4.113 3.396 7.416 7.499 7.416z" fill="#000000" style="fill: rgb(255, 255, 255);"></path><path d="m156.735 366.827c2.107 0 4.203-.883 5.686-2.605 2.704-3.138 2.351-7.874-.787-10.577-2.479-2.136-4.928-4.321-7.276-6.494-3.04-2.812-7.786-2.628-10.598.413-2.813 3.041-2.628 7.786.413 10.599 2.478 2.292 5.059 4.595 7.672 6.846 1.415 1.22 3.156 1.818 4.89 1.818z" fill="#000000" style="fill: rgb(255, 255, 255);"></path><path d="m414.779 165.307c-3.851 1.526-5.734 5.885-4.208 9.736 1.152 2.906 2.208 5.902 3.141 8.907 1.217 3.992 5.536 6.167 9.385 4.941 3.956-1.227 6.168-5.429 4.941-9.385-1.045-3.369-2.23-6.73-3.522-9.99-1.527-3.852-5.887-5.734-9.737-4.209z" fill="#000000" style="fill: rgb(255, 255, 255);"></path><path d="m312.4 120.5c-19.928 0-39.346 5.852-56.4 16.96-133.002-78.22-245.606 136.312-16.451 249.982 10.062 5.384 22.826 5.386 32.878.013 28.998-15.132 53.693-31.884 73.399-49.789 3.066-2.785 3.293-7.529.507-10.594-2.785-3.065-7.529-3.294-10.594-.507-18.756 17.042-42.393 33.054-70.276 47.605-5.792 3.049-13.109 3.062-18.95-.013-212.799-105.54-110.079-295.022 4.029-222.281 3.265 2.292 7.651 2.292 10.916 0 95.767-61.019 172.584 60.331 97.625 149.892-2.57 3.249-2.02 7.965 1.229 10.535 3.248 2.571 7.966 2.02 10.535-1.229 63.277-75.469 32.61-186.892-58.447-190.574z" fill="#000000" style="fill: rgb(255, 255, 255);"></path></g></g></svg>